<?xml version="1.0" encoding="UTF-8"?>
<svg id="Calque_2" data-name="Calque 2" xmlns="http://www.w3.org/2000/svg" viewBox="0 0 941.63 511.31">
  <defs>
    <style>
      .cls-1 {
        fill: #e1b826;
      }
    </style>
  </defs>
  <g id="_2" data-name="2">
    <g id="SVGRepo_iconCarrier" data-name="SVGRepo iconCarrier">
      <g>
        <path class="cls-1" d="m825.81,426.17c26.9-28.47,32.3-60.18,25.25-88.73,2.74.28,5.54.41,8.36.43,22.63,0,43.33-9.25,58.14-24.09,14.84-14.81,24.07-35.5,24.07-58.12,0-22.65-9.24-43.32-24.07-58.16s-35.51-24.08-58.16-24.07c-2.8,0-5.6.14-8.35.42,7.05-28.56,1.66-60.24-25.25-88.73-31.99-33.87-78.84-29.55-109.88-8.94l.26-.81c-3.66-62.11-105.97-110.84-149.8-41.42-12.31,19.46-9.97,41.11-.26,57.46-26.29-9.58-69.54,9.63-80.13,48.5-10.98,40.2-21.94,80.39-43.86,80.38-3.45.03-15.26,0-32.67,0-.14-10.09-8.35-18.27-18.47-18.28-10.15,0-18.36,8.16-18.49,18.29-65.53,0-123.97-.02-192.14,0-2.53-7.07-9.22-12.17-17.16-12.18l-144.93.02c-10.09,0-18.26,8.17-18.27,18.27v58.45c0,10.11,8.18,18.28,18.29,18.28h144.92c7.94,0,14.64-5.08,17.15-12.17,68.17.02,126.59,0,192.15.02.14,10.09,8.34,18.24,18.48,18.26,10.14,0,18.34-8.16,18.48-18.28,17.41,0,29.21,0,32.66,0,21.94,0,32.88,40.21,43.86,80.39,10.6,38.88,53.86,58.08,80.14,48.49-9.72,16.37-12.05,38.01.23,57.47,43.85,69.43,146.17,20.71,149.81-41.42l-.25-.8c31.04,20.63,77.89,24.94,109.88-8.94Zm33.61-201.31c8.55,0,16.14,3.43,21.79,9.01,5.57,5.64,9.01,13.24,9.02,21.8,0,8.53-3.41,16.14-9.01,21.76-5.63,5.61-13.23,9.01-21.78,9.03-8.57,0-16.15-3.42-21.78-9.03-5.6-5.61-9.03-13.21-9.02-21.77.02-8.55,3.42-16.15,9.02-21.79,5.63-5.59,13.22-8.99,21.77-9.01Zm-330.8-34.98c-15.59-33.41,9.75-68.22,21.93-56.05,12.17,12.2,26.79,9.75,26.79,9.75,10.13-10.13,11.26-22.47,7.57-32.73,13.55,8.34,30.15,9.62,44.81-1.36,19.48-14.63,18.28-45.06-2.43-48.72-18.26-3.23-21.61,17.21-21.9,27.64-14.68.68-22.27-17.66-8.55-34.94,28-35.34,99.89-8.54,93.79,47.49l.57.74c-8.48,14.65-10.42,31.53-1.8,48,13.41,25.56,51.16,27.99,54.83,7.29,3.63-20.7-17.07-14.62-17.07-36.54,0-21.94,58.97-35.94,76.73-1.23,25.57,49.96-14.63,97.47-53.59,103.53-31.69,4.94-72.34,8.09-103.54,9.13v-11.34c.02-10.22-8.26-18.5-18.49-18.5-10.21,0-18.49,8.28-18.49,18.49v11.14c-30.14-2.1-66.82-11.1-81.15-41.8Zm198.54,200.97c0-21.92,20.69-15.83,17.04-36.53-3.67-20.7-41.4-18.27-54.83,7.31-8.59,16.44-6.65,33.35,1.83,47.96l-.58.75c6.09,56.03-65.77,82.83-93.78,47.5-13.73-17.29-6.13-35.64,8.56-34.93.28,10.42,3.63,30.85,21.89,27.63,20.71-3.68,21.92-34.1,2.44-48.71-14.67-11-31.27-9.71-44.81-1.38,3.66-10.26,2.54-22.6-7.58-32.72,0,0-14.6-2.45-26.79,9.73-12.18,12.18-37.52-22.61-21.95-56.02,14.36-30.71,51.04-39.73,81.16-41.82v11.15c.02,10.21,8.29,18.48,18.51,18.5,10.21,0,18.5-8.3,18.51-18.51v-11.32c31.17,1.02,71.83,4.17,103.53,9.11,38.95,6.08,79.16,53.61,53.57,103.53-17.76,34.71-76.72,20.71-76.72-1.23Z"/>
        <path class="cls-1" d="m163.2,325.09H23.14s0,86.58,0,86.58c0,2.84,2.32,5.17,5.18,5.18h35.92c2.86,0,5.19-2.32,5.19-5.19v-37.13c0-2.87,2.31-5.19,5.18-5.18h37.14c2.86,0,5.18,2.31,5.18,5.18v37.15c0,2.85,2.32,5.18,5.18,5.17h35.92c2.86,0,5.17-2.31,5.18-5.18v-86.56Z"/>
      </g>
    </g>
  </g>
</svg>